<svg id="Layer_2" data-name="Layer 2" xmlns="http://www.w3.org/2000/svg" viewBox="0 0 1408.78 1502.26"><defs><style>.cls-1{fill:#020017;}</style></defs><path class="cls-1" d="M1085.43,441.22a0,0,0,0,0,0,0,1.57,1.57,0,0,1-1.73,1.05c-2.62-.4-5.92-1-9.69-1.8a164.64,164.64,0,0,1-26-8,168.26,168.26,0,0,1-19-9c-.38-.23-4.39-2.64-7-1a2.62,2.62,0,0,0-1,1c-1,2,1.35,5.05,2,6,1.58,2.32,2.64,6.5.65,14.6a1.56,1.56,0,0,0,1.83,1.9l7.52-1.5,8.12-1.62a1.56,1.56,0,0,1,1.88,1.53v1.06a1.57,1.57,0,0,1-1,1.44l-6,2.59-14,6c-5.71,2.44-15.13,6.43-19,8a188.35,188.35,0,0,1-34,10,138.05,138.05,0,0,1-46.67.22,1.59,1.59,0,0,1-1.33-1.56v-1.38a1.56,1.56,0,0,1,1.25-1.54c3.84-.79,9.26-1.81,15.75-2.74,16.16-2.3,22-1.59,37-4,18.07-2.9,22.61-6,25-8,2.14-1.76,9.11-7.51,10-17,.51-5.39-.75-14.07-7-18-4-2.49-8.15-1.93-15-1a54.31,54.31,0,0,0-20,7c-4.74,2.76-4.66,3.57-15,12-9.9,8.07-15,12.17-21,15-5.53,2.6-10.69,3.88-18,5-20.78,3.19-43.07,2.69-55.78,2.06a1.55,1.55,0,0,1-1.46-1.26l-.39-1.95a1.55,1.55,0,0,1,1.5-1.87,176.21,176.21,0,0,0,29.13-3c14.74-2.76,28.26-5.28,42-14,15.3-9.71,12.35-15.33,29-26,7.33-4.7,19.17-12.09,36-13a65,65,0,0,1,33,7c11.66,6.19,12.61,11.82,24,20,6.74,4.83,17.3,10.68,33.22,13.68A1.58,1.58,0,0,1,1085.43,441.22ZM955,444.5a19.54,19.54,0,0,1,5-8c2.11-2.29,4.22-4.58,6-4a3.61,3.61,0,0,1,2,3c.41,3.17-3.18,4.1-5,9-1.37,3.7-.21,5.54-2,7s-4.58,1.4-6,0C953.39,449.91,954.27,447,955,444.5Zm655,168a66.4,66.4,0,0,1-3,9.88,2.53,2.53,0,0,1-.12.23,26,26,0,0,1-35.84,8.94l-.19-.09c-5.82-2.44-28.72-12.51-40.9-31-2.71-4.11-6.88-10.57-8-20a41.14,41.14,0,0,1,.71-13.77,1.55,1.55,0,0,1,1.54-1.22,141.11,141.11,0,0,1,60.75,14,135.65,135.65,0,0,1,19.91,11.94l.17.14a18.27,18.27,0,0,1,5.92,9.92C1611.66,604.83,1611.08,607.52,1610,612.5Zm-116,704a640.13,640.13,0,0,0-137,252,572.9,572.9,0,0,1-68,58c-32.78,23.8-90.6,55.73-117.5,68.5,20-43,61.91-111,97.5-166.5C1342.67,1413.68,1437.14,1349,1494,1316.5Zm-34-69c-81.52,58.2-189.25,150.44-284,288a1155.56,1155.56,0,0,0-109,197,286.81,286.81,0,0,1-125,16,1418.31,1418.31,0,0,1,518-501Zm192-644.92-.07-.16a53.15,53.15,0,0,0-11-14.92,54.81,54.81,0,0,0-28-14c-10.47-1.65-25.32-4.21-43-8-18.54-4-45.72-9.8-71-19-30.39-11.06-39.87-20.39-69-36-12.7-6.81-20.59-10.23-103-40-61.83-22.34-96.18-34.43-147-54-47.46-18.28-59.84-24-74-32-29-16.27-37.12-25.86-68-41-16-7.86-37.26-18.27-61-23-33.58-6.69-60.71.27-110,16-38.69,12.34-85.25,28.25-137.82,48.45a1.58,1.58,0,0,0-.33,2.77l1.15.78c11.14,7.39,22.35,9.09,35,11a141.26,141.26,0,0,0,40.71.19,1.55,1.55,0,0,1,1.7,1.05c0,.05,0,.1.05.14a1.57,1.57,0,0,1-1.12,2A122,122,0,0,1,765,405.5c-11.17-1.22-26.54-2.9-42-13a78.7,78.7,0,0,1-27.21-31.3,1.21,1.21,0,0,0-.24-.35C686.26,350.62,678,341.8,671,334.5c-25.32-26.45-32.83-32.14-42-37-24.56-13-48-13.09-60-13-33,.26-55.43,12.08-78,24-9.07,4.79-15.79,9.2-21,17-9.44,14.13-7.79,30.22-7,37,1.48,12.7,6.25,24.55,34,60,26.18,33.44,44.22,56.15,76,80,9.23,6.92,21.5,15.5,24.08,17.37L603,523.5c11.43,7,18.51,11.14,29,15,23.92,8.8,44.54,8.36,56,8,16.27-.51,26-3.3,31-5a93.28,93.28,0,0,0,12-5l3,1a72.08,72.08,0,0,1-11,7,72.82,72.82,0,0,1-16,6c-5.49,1.75-15.12,5.75-22,15-13.49,18.13-5.62,42.08-3,51,4.74,16.14,13.92,25.94,28,41,17.29,18.49,33.86,29.23,46,37a296,296,0,0,0,51,26,522.12,522.12,0,0,0,29,48c20.11,29.57,30.56,44.63,50,58a132.93,132.93,0,0,0,50,21c25.13,4.73,45,.62,57-2,8.78-1.91,24.2-6,56-23,13.22-7.07,37.28-20.64,80-52,16.68-12.24,39.12-29.33,65-51a458.88,458.88,0,0,0,63,27c43.33,14.85,76.16,18.82,130,25,0,0,82.74,9.5,150,5,21-1.4,43.6-4.45,69-13,6.78-2.28,12.29-4.46,16-6a162,162,0,0,1-18,23c-10.15,10.8-21.84,23.25-39,30-12.13,4.78-13.68,1.46-53,5-17.88,1.61-27.53,2.48-39,5-22.45,4.94-38,13.16-51,20-74,38.81-53.78,25.06-92,47-72.62,41.69-61.06,42.68-94,58-50.58,23.52-95.44,29.36-131,34-27.55,3.59-60.92,7.74-101,3-34.23-4-48-7-63-11-1-.26-12-2.93-34-8-1.94-.45-6.25-1.4-7,0-.33.62.1,1.56.79,2.52a9.67,9.67,0,0,0,4.4,3.32c8.43,3.21,20,7.47,33.81,12.16,30.46,10.33,45.68,15.49,64,19,29.18,5.59,33.52,1.57,52,9a121,121,0,0,1,35,22c11.36,9.91,15.46,16.84,35,46,30.58,45.64,34.44,49.42,38,63,2.94,11.21,9.19,35.08-3,50-9.14,11.18-24.38,12.12-43,13-81.39,3.84-114.69,2.33-151,7-29.66,3.81-44.49,5.72-54,9-8.64,3-16.06,6.41-27,6-14.59-.54-24.64-7.51-32-12-20.82-12.71-41.88-17.81-84-28-16.32-4-28.21-5.63-52-9-40.56-5.74-60.84-8.61-83-8,0,0-42.51,1.17-82-3-4-.42-13.13-1.51-17-8-3.49-5.85-1.1-13.48,0-17,2.21-7.07,6.15-11.85,11-17,10.12-10.75,18-19.12,32-27a122.44,122.44,0,0,1,31-12,763.66,763.66,0,0,0,77-25c39.46-15.69,65-38.79,75-48,19.8-18.24,37.6-34.62,46-63a116.61,116.61,0,0,0,2-55c-5.14-25.15-17.39-41.88-27-55a197.56,197.56,0,0,0-31-33c-26.54-22.62-34-17.51-55-37-7.9-7.33-26.41-24.91-34-52a116.85,116.85,0,0,1-4-31c.13-7.61,1-10.29,3-25,.82-6,3.16-23.26,4-38a247.67,247.67,0,0,0-1-39.87l-3-.13c-7.54,39.6-21.35,112.08-24,126-14,73.74-21.34,111-34,132-32,53-67,86-67,86-6.19,5.84-19,17.42-29,37-9.91,19.42-11,34.89-13,46-9.49,52.73-54.43,90.07-76,108a252.68,252.68,0,0,1-81,45c-10.34-61.27-17.58-154.86,9-259,18-70.41,44.94-120.27,52-133,6.16-11.1,28.81-51,68-96,53-60.78,104.51-94.6,121-105,11.76-7.41,21.85-13.12,29-17a72,72,0,0,0-35-7,71.23,71.23,0,0,0-10.47,1.36C517.85,579.94,426.19,647.54,354.5,765c-99.25,162.63-100.25,322.6-96,392,3.67,60,26,292.53,224.5,466.5,39.8,34.88,188.6,156.71,413,163,316.59,8.87,509.75-219.94,531-246,128.82-158,146.4-331.57,149-403,4.28-117.66-22.86-213.25-46.54-274.46q-18.48-10-21.46-6.54-1.51,1.75,1,7a307.53,307.53,0,0,1,34,125c2.28,44.49,3,77.08-4,105-11.68,46.27-27.17,72-51,90-21.23,16.06-45,17.49-70,19-37.61,2.27-65.7-6.52-95-16-48.12-15.56-77.22-25-100-54-6.16-7.85-27.37-35.68-26-74,1.26-35.45,18.74-61.78,38-80,37-35,68.18-54.74,96-69,23.58-12.09,26.55-12,54-27,37.48-20.46,60-33,60-33,14-7.78,21.3-11.92,33-14,11.23-2,20.41-1,38,1q4.39.51,9.23,1.18A93.7,93.7,0,0,0,1545,835.5c14.74-3.24,28.49-10.07,63-38,21-17,31.58-25.56,35-30,22.07-28.62,22.61-62.2,23-86A213.46,213.46,0,0,0,1652,602.58ZM745,1220.5c28.42,6,58.62,13.31,83.5,20.5-16.67,7.33-36.83,14.17-53.5,21.5q-22.37-10.62-46-21c-33.27-14.59-65.68-27.52-97-39A1130.78,1130.78,0,0,1,745,1220.5Zm-152,8c47.36,19.43,98.39,41.36,131,62l-40,19c-24.18-21.51-65.38-45.23-102-68-31.53-19.61-72.95-36-99.5-47.5C512.46,1201.79,557.39,1213.89,593,1228.5Zm-93,23a713.81,713.81,0,0,1,139,86l-43,22a786.83,786.83,0,0,0-237-157A696.35,696.35,0,0,1,500,1251.5Zm-48,62a597.32,597.32,0,0,1,94,77c-13.5,8.5-22.5,15.5-36.5,23.5-16.77-25-41.38-57.35-72.5-87.5a526.92,526.92,0,0,0-82-65A597,597,0,0,1,452,1313.5Zm-18,179a353,353,0,0,0-95-164,675.6,675.6,0,0,1,81,62,674.06,674.06,0,0,1,61,62Zm57,87a146.86,146.86,0,0,1-18.5-24.5,1253,1253,0,0,1,600-330A1307.56,1307.56,0,0,0,541,1614.5,149.78,149.78,0,0,1,491,1579.5ZM1379.5,1233c-103.74,57.33-223.75,141.19-354.5,284.5a1442.84,1442.84,0,0,0-170,228,174.22,174.22,0,0,1-99.5-25.5,1456.58,1456.58,0,0,1,230-248C1136.86,1342.84,1270.35,1276.26,1379.5,1233Zm-162,6A1268.55,1268.55,0,0,0,684,1698.5a170.65,170.65,0,0,1-78.5-39.5,1388.25,1388.25,0,0,1,612-420Z" transform="translate(-257.24 -284.49)"/></svg>